<svg  xml:space="preserve"
      width="100%"
      height="100%"
      viewBox="0 0 100 180" fill="none" xmlns="http://www.w3.org/2000/svg">
  <mask id="path-1-inside-1_97_6" fill="white">
    <path d="M-24 18.4537C216.266 10.2765 229.494 182.96 359.848 179.352C362.253 179.352 364.658 179.352 367.304 179.352C503.911 182.96 556.101 -25.559 773.76 3.06127"/>
  </mask>
  <path d="M-24 18.4537C216.266 10.2765 229.494 182.96 359.848 179.352C362.253 179.352 364.658 179.352 367.304 179.352C503.911 182.96 556.101 -25.559 773.76 3.06127" fill="url(#paint0_linear_97_6)"/>
  <path d="M359.848 179.352L359.82 178.353L359.834 178.352H359.848V179.352ZM367.304 179.352V178.352H367.317L367.33 178.353L367.304 179.352ZM-24.034 17.4543C36.1583 15.4057 82.1757 24.6843 119.382 39.7245C156.584 54.7631 184.929 75.5428 209.784 96.4238C234.686 117.343 255.955 138.238 279.221 153.752C302.419 169.221 327.487 179.248 359.82 178.353L359.876 180.352C327.032 181.261 301.564 171.055 278.111 155.416C254.726 139.822 233.231 118.733 208.498 97.9551C183.719 77.1383 155.559 56.5058 118.633 41.5788C81.7104 26.6534 35.9746 17.4131 -23.966 19.4531L-24.034 17.4543ZM359.848 178.352C359.853 178.352 359.858 178.352 359.862 178.352C359.867 178.352 359.872 178.352 359.876 178.352C359.881 178.352 359.886 178.352 359.89 178.352C359.895 178.352 359.9 178.352 359.905 178.352C359.909 178.352 359.914 178.352 359.919 178.352C359.923 178.352 359.928 178.352 359.933 178.352C359.937 178.352 359.942 178.352 359.947 178.352C359.951 178.352 359.956 178.352 359.961 178.352C359.966 178.352 359.97 178.352 359.975 178.352C359.98 178.352 359.984 178.352 359.989 178.352C359.994 178.352 359.998 178.352 360.003 178.352C360.008 178.352 360.013 178.352 360.017 178.352C360.022 178.352 360.027 178.352 360.031 178.352C360.036 178.352 360.041 178.352 360.045 178.352C360.05 178.352 360.055 178.352 360.06 178.352C360.064 178.352 360.069 178.352 360.074 178.352C360.078 178.352 360.083 178.352 360.088 178.352C360.092 178.352 360.097 178.352 360.102 178.352C360.107 178.352 360.111 178.352 360.116 178.352C360.121 178.352 360.125 178.352 360.13 178.352C360.135 178.352 360.139 178.352 360.144 178.352C360.149 178.352 360.153 178.352 360.158 178.352C360.163 178.352 360.168 178.352 360.172 178.352C360.177 178.352 360.182 178.352 360.186 178.352C360.191 178.352 360.196 178.352 360.2 178.352C360.205 178.352 360.21 178.352 360.215 178.352C360.219 178.352 360.224 178.352 360.229 178.352C360.233 178.352 360.238 178.352 360.243 178.352C360.247 178.352 360.252 178.352 360.257 178.352C360.262 178.352 360.266 178.352 360.271 178.352C360.276 178.352 360.28 178.352 360.285 178.352C360.29 178.352 360.294 178.352 360.299 178.352C360.304 178.352 360.309 178.352 360.313 178.352C360.318 178.352 360.323 178.352 360.327 178.352C360.332 178.352 360.337 178.352 360.341 178.352C360.346 178.352 360.351 178.352 360.356 178.352C360.36 178.352 360.365 178.352 360.37 178.352C360.374 178.352 360.379 178.352 360.384 178.352C360.388 178.352 360.393 178.352 360.398 178.352C360.403 178.352 360.407 178.352 360.412 178.352C360.417 178.352 360.421 178.352 360.426 178.352C360.431 178.352 360.435 178.352 360.44 178.352C360.445 178.352 360.45 178.352 360.454 178.352C360.459 178.352 360.464 178.352 360.468 178.352C360.473 178.352 360.478 178.352 360.482 178.352C360.487 178.352 360.492 178.352 360.497 178.352C360.501 178.352 360.506 178.352 360.511 178.352C360.515 178.352 360.52 178.352 360.525 178.352C360.529 178.352 360.534 178.352 360.539 178.352C360.544 178.352 360.548 178.352 360.553 178.352C360.558 178.352 360.562 178.352 360.567 178.352C360.572 178.352 360.576 178.352 360.581 178.352C360.586 178.352 360.591 178.352 360.595 178.352C360.6 178.352 360.605 178.352 360.609 178.352C360.614 178.352 360.619 178.352 360.624 178.352C360.628 178.352 360.633 178.352 360.638 178.352C360.642 178.352 360.647 178.352 360.652 178.352C360.656 178.352 360.661 178.352 360.666 178.352C360.671 178.352 360.675 178.352 360.68 178.352C360.685 178.352 360.689 178.352 360.694 178.352C360.699 178.352 360.703 178.352 360.708 178.352C360.713 178.352 360.718 178.352 360.722 178.352C360.727 178.352 360.732 178.352 360.736 178.352C360.741 178.352 360.746 178.352 360.75 178.352C360.755 178.352 360.76 178.352 360.765 178.352C360.769 178.352 360.774 178.352 360.779 178.352C360.783 178.352 360.788 178.352 360.793 178.352C360.798 178.352 360.802 178.352 360.807 178.352C360.812 178.352 360.816 178.352 360.821 178.352C360.826 178.352 360.831 178.352 360.835 178.352C360.84 178.352 360.845 178.352 360.849 178.352C360.854 178.352 360.859 178.352 360.863 178.352C360.868 178.352 360.873 178.352 360.878 178.352C360.882 178.352 360.887 178.352 360.892 178.352C360.896 178.352 360.901 178.352 360.906 178.352C360.91 178.352 360.915 178.352 360.92 178.352C360.925 178.352 360.929 178.352 360.934 178.352C360.939 178.352 360.943 178.352 360.948 178.352C360.953 178.352 360.958 178.352 360.962 178.352C360.967 178.352 360.972 178.352 360.976 178.352C360.981 178.352 360.986 178.352 360.991 178.352C360.995 178.352 361 178.352 361.005 178.352C361.009 178.352 361.014 178.352 361.019 178.352C361.024 178.352 361.028 178.352 361.033 178.352C361.038 178.352 361.042 178.352 361.047 178.352C361.052 178.352 361.056 178.352 361.061 178.352C361.066 178.352 361.071 178.352 361.075 178.352C361.08 178.352 361.085 178.352 361.089 178.352C361.094 178.352 361.099 178.352 361.104 178.352C361.108 178.352 361.113 178.352 361.118 178.352C361.122 178.352 361.127 178.352 361.132 178.352C361.137 178.352 361.141 178.352 361.146 178.352C361.151 178.352 361.155 178.352 361.16 178.352C361.165 178.352 361.17 178.352 361.174 178.352C361.179 178.352 361.184 178.352 361.188 178.352C361.193 178.352 361.198 178.352 361.203 178.352C361.207 178.352 361.212 178.352 361.217 178.352C361.221 178.352 361.226 178.352 361.231 178.352C361.236 178.352 361.24 178.352 361.245 178.352C361.25 178.352 361.254 178.352 361.259 178.352C361.264 178.352 361.269 178.352 361.273 178.352C361.278 178.352 361.283 178.352 361.287 178.352C361.292 178.352 361.297 178.352 361.302 178.352C361.306 178.352 361.311 178.352 361.316 178.352C361.32 178.352 361.325 178.352 361.33 178.352C361.335 178.352 361.339 178.352 361.344 178.352C361.349 178.352 361.353 178.352 361.358 178.352C361.363 178.352 361.368 178.352 361.372 178.352C361.377 178.352 361.382 178.352 361.387 178.352C361.391 178.352 361.396 178.352 361.401 178.352C361.405 178.352 361.41 178.352 361.415 178.352C361.42 178.352 361.424 178.352 361.429 178.352C361.434 178.352 361.438 178.352 361.443 178.352C361.448 178.352 361.453 178.352 361.457 178.352C361.462 178.352 361.467 178.352 361.471 178.352C361.476 178.352 361.481 178.352 361.486 178.352C361.49 178.352 361.495 178.352 361.5 178.352C361.505 178.352 361.509 178.352 361.514 178.352C361.519 178.352 361.523 178.352 361.528 178.352C361.533 178.352 361.538 178.352 361.542 178.352C361.547 178.352 361.552 178.352 361.556 178.352C361.561 178.352 361.566 178.352 361.571 178.352C361.575 178.352 361.58 178.352 361.585 178.352C361.59 178.352 361.594 178.352 361.599 178.352C361.604 178.352 361.608 178.352 361.613 178.352C361.618 178.352 361.623 178.352 361.627 178.352C361.632 178.352 361.637 178.352 361.642 178.352C361.646 178.352 361.651 178.352 361.656 178.352C361.66 178.352 361.665 178.352 361.67 178.352C361.675 178.352 361.679 178.352 361.684 178.352C361.689 178.352 361.694 178.352 361.698 178.352C361.703 178.352 361.708 178.352 361.712 178.352C361.717 178.352 361.722 178.352 361.727 178.352C361.731 178.352 361.736 178.352 361.741 178.352C361.746 178.352 361.75 178.352 361.755 178.352C361.76 178.352 361.764 178.352 361.769 178.352C361.774 178.352 361.779 178.352 361.783 178.352C361.788 178.352 361.793 178.352 361.798 178.352C361.802 178.352 361.807 178.352 361.812 178.352C361.816 178.352 361.821 178.352 361.826 178.352C361.831 178.352 361.835 178.352 361.84 178.352C361.845 178.352 361.85 178.352 361.854 178.352C361.859 178.352 361.864 178.352 361.869 178.352C361.873 178.352 361.878 178.352 361.883 178.352C361.887 178.352 361.892 178.352 361.897 178.352C361.902 178.352 361.906 178.352 361.911 178.352C361.916 178.352 361.921 178.352 361.925 178.352C361.93 178.352 361.935 178.352 361.94 178.352C361.944 178.352 361.949 178.352 361.954 178.352C361.959 178.352 361.963 178.352 361.968 178.352C361.973 178.352 361.977 178.352 361.982 178.352C361.987 178.352 361.992 178.352 361.996 178.352C362.001 178.352 362.006 178.352 362.011 178.352C362.015 178.352 362.02 178.352 362.025 178.352C362.03 178.352 362.034 178.352 362.039 178.352C362.044 178.352 362.049 178.352 362.053 178.352C362.058 178.352 362.063 178.352 362.068 178.352C362.072 178.352 362.077 178.352 362.082 178.352C362.086 178.352 362.091 178.352 362.096 178.352C362.101 178.352 362.105 178.352 362.11 178.352C362.115 178.352 362.12 178.352 362.124 178.352C362.129 178.352 362.134 178.352 362.139 178.352C362.143 178.352 362.148 178.352 362.153 178.352C362.158 178.352 362.162 178.352 362.167 178.352C362.172 178.352 362.177 178.352 362.181 178.352C362.186 178.352 362.191 178.352 362.196 178.352C362.2 178.352 362.205 178.352 362.21 178.352C362.215 178.352 362.219 178.352 362.224 178.352C362.229 178.352 362.234 178.352 362.238 178.352C362.243 178.352 362.248 178.352 362.253 178.352C362.257 178.352 362.262 178.352 362.267 178.352C362.272 178.352 362.276 178.352 362.281 178.352C362.286 178.352 362.291 178.352 362.295 178.352C362.3 178.352 362.305 178.352 362.31 178.352C362.314 178.352 362.319 178.352 362.324 178.352C362.329 178.352 362.333 178.352 362.338 178.352C362.343 178.352 362.348 178.352 362.352 178.352C362.357 178.352 362.362 178.352 362.367 178.352C362.371 178.352 362.376 178.352 362.381 178.352C362.386 178.352 362.39 178.352 362.395 178.352C362.4 178.352 362.405 178.352 362.409 178.352C362.414 178.352 362.419 178.352 362.424 178.352C362.428 178.352 362.433 178.352 362.438 178.352C362.443 178.352 362.447 178.352 362.452 178.352C362.457 178.352 362.462 178.352 362.467 178.352C362.471 178.352 362.476 178.352 362.481 178.352C362.486 178.352 362.49 178.352 362.495 178.352C362.5 178.352 362.505 178.352 362.509 178.352C362.514 178.352 362.519 178.352 362.524 178.352C362.528 178.352 362.533 178.352 362.538 178.352C362.543 178.352 362.547 178.352 362.552 178.352C362.557 178.352 362.562 178.352 362.566 178.352C362.571 178.352 362.576 178.352 362.581 178.352C362.586 178.352 362.59 178.352 362.595 178.352C362.6 178.352 362.605 178.352 362.609 178.352C362.614 178.352 362.619 178.352 362.624 178.352C362.628 178.352 362.633 178.352 362.638 178.352C362.643 178.352 362.648 178.352 362.652 178.352C362.657 178.352 362.662 178.352 362.667 178.352C362.671 178.352 362.676 178.352 362.681 178.352C362.686 178.352 362.69 178.352 362.695 178.352C362.7 178.352 362.705 178.352 362.71 178.352C362.714 178.352 362.719 178.352 362.724 178.352C362.729 178.352 362.733 178.352 362.738 178.352C362.743 178.352 362.748 178.352 362.752 178.352C362.757 178.352 362.762 178.352 362.767 178.352C362.772 178.352 362.776 178.352 362.781 178.352C362.786 178.352 362.791 178.352 362.795 178.352C362.8 178.352 362.805 178.352 362.81 178.352C362.815 178.352 362.819 178.352 362.824 178.352C362.829 178.352 362.834 178.352 362.838 178.352C362.843 178.352 362.848 178.352 362.853 178.352C362.858 178.352 362.862 178.352 362.867 178.352C362.872 178.352 362.877 178.352 362.881 178.352C362.886 178.352 362.891 178.352 362.896 178.352C362.901 178.352 362.905 178.352 362.91 178.352C362.915 178.352 362.92 178.352 362.924 178.352C362.929 178.352 362.934 178.352 362.939 178.352C362.944 178.352 362.948 178.352 362.953 178.352C362.958 178.352 362.963 178.352 362.967 178.352C362.972 178.352 362.977 178.352 362.982 178.352C362.987 178.352 362.991 178.352 362.996 178.352C363.001 178.352 363.006 178.352 363.011 178.352C363.015 178.352 363.02 178.352 363.025 178.352C363.03 178.352 363.034 178.352 363.039 178.352C363.044 178.352 363.049 178.352 363.054 178.352C363.058 178.352 363.063 178.352 363.068 178.352C363.073 178.352 363.078 178.352 363.082 178.352C363.087 178.352 363.092 178.352 363.097 178.352C363.102 178.352 363.106 178.352 363.111 178.352C363.116 178.352 363.121 178.352 363.125 178.352C363.13 178.352 363.135 178.352 363.14 178.352C363.145 178.352 363.149 178.352 363.154 178.352C363.159 178.352 363.164 178.352 363.169 178.352C363.173 178.352 363.178 178.352 363.183 178.352C363.188 178.352 363.193 178.352 363.197 178.352C363.202 178.352 363.207 178.352 363.212 178.352C363.217 178.352 363.221 178.352 363.226 178.352C363.231 178.352 363.236 178.352 363.241 178.352C363.245 178.352 363.25 178.352 363.255 178.352C363.26 178.352 363.265 178.352 363.269 178.352C363.274 178.352 363.279 178.352 363.284 178.352C363.289 178.352 363.293 178.352 363.298 178.352C363.303 178.352 363.308 178.352 363.313 178.352C363.317 178.352 363.322 178.352 363.327 178.352C363.332 178.352 363.337 178.352 363.341 178.352C363.346 178.352 363.351 178.352 363.356 178.352C363.361 178.352 363.366 178.352 363.37 178.352C363.375 178.352 363.38 178.352 363.385 178.352C363.39 178.352 363.394 178.352 363.399 178.352C363.404 178.352 363.409 178.352 363.414 178.352C363.418 178.352 363.423 178.352 363.428 178.352C363.433 178.352 363.438 178.352 363.442 178.352C363.447 178.352 363.452 178.352 363.457 178.352C363.462 178.352 363.467 178.352 363.471 178.352C363.476 178.352 363.481 178.352 363.486 178.352C363.491 178.352 363.495 178.352 363.5 178.352C363.505 178.352 363.51 178.352 363.515 178.352C363.52 178.352 363.524 178.352 363.529 178.352C363.534 178.352 363.539 178.352 363.544 178.352C363.548 178.352 363.553 178.352 363.558 178.352C363.563 178.352 363.568 178.352 363.573 178.352C363.577 178.352 363.582 178.352 363.587 178.352C363.592 178.352 363.597 178.352 363.601 178.352C363.606 178.352 363.611 178.352 363.616 178.352C363.621 178.352 363.626 178.352 363.63 178.352C363.635 178.352 363.64 178.352 363.645 178.352C363.65 178.352 363.654 178.352 363.659 178.352C363.664 178.352 363.669 178.352 363.674 178.352C363.679 178.352 363.683 178.352 363.688 178.352C363.693 178.352 363.698 178.352 363.703 178.352C363.708 178.352 363.712 178.352 363.717 178.352C363.722 178.352 363.727 178.352 363.732 178.352C363.737 178.352 363.741 178.352 363.746 178.352C363.751 178.352 363.756 178.352 363.761 178.352C363.766 178.352 363.77 178.352 363.775 178.352C363.78 178.352 363.785 178.352 363.79 178.352C363.795 178.352 363.799 178.352 363.804 178.352C363.809 178.352 363.814 178.352 363.819 178.352C363.824 178.352 363.828 178.352 363.833 178.352C363.838 178.352 363.843 178.352 363.848 178.352C363.853 178.352 363.857 178.352 363.862 178.352C363.867 178.352 363.872 178.352 363.877 178.352C363.882 178.352 363.887 178.352 363.891 178.352C363.896 178.352 363.901 178.352 363.906 178.352C363.911 178.352 363.916 178.352 363.92 178.352C363.925 178.352 363.93 178.352 363.935 178.352C363.94 178.352 363.945 178.352 363.949 178.352C363.954 178.352 363.959 178.352 363.964 178.352C363.969 178.352 363.974 178.352 363.979 178.352C363.983 178.352 363.988 178.352 363.993 178.352C363.998 178.352 364.003 178.352 364.008 178.352C364.012 178.352 364.017 178.352 364.022 178.352C364.027 178.352 364.032 178.352 364.037 178.352C364.042 178.352 364.046 178.352 364.051 178.352C364.056 178.352 364.061 178.352 364.066 178.352C364.071 178.352 364.076 178.352 364.08 178.352C364.085 178.352 364.09 178.352 364.095 178.352C364.1 178.352 364.105 178.352 364.11 178.352C364.114 178.352 364.119 178.352 364.124 178.352C364.129 178.352 364.134 178.352 364.139 178.352C364.144 178.352 364.148 178.352 364.153 178.352C364.158 178.352 364.163 178.352 364.168 178.352C364.173 178.352 364.178 178.352 364.182 178.352C364.187 178.352 364.192 178.352 364.197 178.352C364.202 178.352 364.207 178.352 364.212 178.352C364.217 178.352 364.221 178.352 364.226 178.352C364.231 178.352 364.236 178.352 364.241 178.352C364.246 178.352 364.251 178.352 364.255 178.352C364.26 178.352 364.265 178.352 364.27 178.352C364.275 178.352 364.28 178.352 364.285 178.352C364.29 178.352 364.294 178.352 364.299 178.352C364.304 178.352 364.309 178.352 364.314 178.352C364.319 178.352 364.324 178.352 364.329 178.352C364.333 178.352 364.338 178.352 364.343 178.352C364.348 178.352 364.353 178.352 364.358 178.352C364.363 178.352 364.368 178.352 364.372 178.352C364.377 178.352 364.382 178.352 364.387 178.352C364.392 178.352 364.397 178.352 364.402 178.352C364.407 178.352 364.411 178.352 364.416 178.352C364.421 178.352 364.426 178.352 364.431 178.352C364.436 178.352 364.441 178.352 364.446 178.352C364.451 178.352 364.455 178.352 364.46 178.352C364.465 178.352 364.47 178.352 364.475 178.352C364.48 178.352 364.485 178.352 364.49 178.352C364.494 178.352 364.499 178.352 364.504 178.352C364.509 178.352 364.514 178.352 364.519 178.352C364.524 178.352 364.529 178.352 364.534 178.352C364.538 178.352 364.543 178.352 364.548 178.352C364.553 178.352 364.558 178.352 364.563 178.352C364.568 178.352 364.573 178.352 364.578 178.352C364.582 178.352 364.587 178.352 364.592 178.352C364.597 178.352 364.602 178.352 364.607 178.352C364.612 178.352 364.617 178.352 364.622 178.352C364.627 178.352 364.631 178.352 364.636 178.352C364.641 178.352 364.646 178.352 364.651 178.352C364.656 178.352 364.661 178.352 364.666 178.352C364.671 178.352 364.676 178.352 364.68 178.352C364.685 178.352 364.69 178.352 364.695 178.352C364.7 178.352 364.705 178.352 364.71 178.352C364.715 178.352 364.72 178.352 364.725 178.352C364.729 178.352 364.734 178.352 364.739 178.352C364.744 178.352 364.749 178.352 364.754 178.352C364.759 178.352 364.764 178.352 364.769 178.352C364.774 178.352 364.779 178.352 364.784 178.352C364.788 178.352 364.793 178.352 364.798 178.352C364.803 178.352 364.808 178.352 364.813 178.352C364.818 178.352 364.823 178.352 364.828 178.352C364.833 178.352 364.838 178.352 364.842 178.352C364.847 178.352 364.852 178.352 364.857 178.352C364.862 178.352 364.867 178.352 364.872 178.352C364.877 178.352 364.882 178.352 364.887 178.352C364.892 178.352 364.897 178.352 364.901 178.352C364.906 178.352 364.911 178.352 364.916 178.352C364.921 178.352 364.926 178.352 364.931 178.352C364.936 178.352 364.941 178.352 364.946 178.352C364.951 178.352 364.956 178.352 364.961 178.352C364.965 178.352 364.97 178.352 364.975 178.352C364.98 178.352 364.985 178.352 364.99 178.352C364.995 178.352 365 178.352 365.005 178.352C365.01 178.352 365.015 178.352 365.02 178.352C365.025 178.352 365.03 178.352 365.034 178.352C365.039 178.352 365.044 178.352 365.049 178.352C365.054 178.352 365.059 178.352 365.064 178.352C365.069 178.352 365.074 178.352 365.079 178.352C365.084 178.352 365.089 178.352 365.094 178.352C365.099 178.352 365.104 178.352 365.109 178.352C365.113 178.352 365.118 178.352 365.123 178.352C365.128 178.352 365.133 178.352 365.138 178.352C365.143 178.352 365.148 178.352 365.153 178.352C365.158 178.352 365.163 178.352 365.168 178.352C365.173 178.352 365.178 178.352 365.183 178.352C365.188 178.352 365.193 178.352 365.197 178.352C365.202 178.352 365.207 178.352 365.212 178.352C365.217 178.352 365.222 178.352 365.227 178.352C365.232 178.352 365.237 178.352 365.242 178.352C365.247 178.352 365.252 178.352 365.257 178.352C365.262 178.352 365.267 178.352 365.272 178.352C365.277 178.352 365.282 178.352 365.287 178.352C365.292 178.352 365.297 178.352 365.301 178.352C365.306 178.352 365.311 178.352 365.316 178.352C365.321 178.352 365.326 178.352 365.331 178.352C365.336 178.352 365.341 178.352 365.346 178.352C365.351 178.352 365.356 178.352 365.361 178.352C365.366 178.352 365.371 178.352 365.376 178.352C365.381 178.352 365.386 178.352 365.391 178.352C365.396 178.352 365.401 178.352 365.406 178.352C365.411 178.352 365.416 178.352 365.421 178.352C365.426 178.352 365.43 178.352 365.435 178.352C365.44 178.352 365.445 178.352 365.45 178.352C365.455 178.352 365.46 178.352 365.465 178.352C365.47 178.352 365.475 178.352 365.48 178.352C365.485 178.352 365.49 178.352 365.495 178.352C365.5 178.352 365.505 178.352 365.51 178.352C365.515 178.352 365.52 178.352 365.525 178.352C365.53 178.352 365.535 178.352 365.54 178.352C365.545 178.352 365.55 178.352 365.555 178.352C365.56 178.352 365.565 178.352 365.57 178.352C365.575 178.352 365.58 178.352 365.585 178.352C365.59 178.352 365.595 178.352 365.6 178.352C365.605 178.352 365.61 178.352 365.615 178.352C365.62 178.352 365.625 178.352 365.63 178.352C365.635 178.352 365.64 178.352 365.645 178.352C365.65 178.352 365.655 178.352 365.66 178.352C365.664 178.352 365.669 178.352 365.674 178.352C365.679 178.352 365.684 178.352 365.689 178.352C365.694 178.352 365.699 178.352 365.704 178.352C365.709 178.352 365.714 178.352 365.719 178.352C365.724 178.352 365.729 178.352 365.734 178.352C365.739 178.352 365.744 178.352 365.749 178.352C365.754 178.352 365.759 178.352 365.764 178.352C365.769 178.352 365.774 178.352 365.779 178.352C365.784 178.352 365.789 178.352 365.794 178.352C365.799 178.352 365.804 178.352 365.809 178.352C365.814 178.352 365.819 178.352 365.824 178.352C365.829 178.352 365.834 178.352 365.839 178.352C365.844 178.352 365.849 178.352 365.854 178.352C365.859 178.352 365.865 178.352 365.87 178.352C365.875 178.352 365.88 178.352 365.885 178.352C365.89 178.352 365.895 178.352 365.9 178.352C365.905 178.352 365.91 178.352 365.915 178.352C365.92 178.352 365.925 178.352 365.93 178.352C365.935 178.352 365.94 178.352 365.945 178.352C365.95 178.352 365.955 178.352 365.96 178.352C365.965 178.352 365.97 178.352 365.975 178.352C365.98 178.352 365.985 178.352 365.99 178.352C365.995 178.352 366 178.352 366.005 178.352C366.01 178.352 366.015 178.352 366.02 178.352C366.025 178.352 366.03 178.352 366.035 178.352C366.04 178.352 366.045 178.352 366.05 178.352C366.055 178.352 366.06 178.352 366.065 178.352C366.07 178.352 366.075 178.352 366.08 178.352C366.085 178.352 366.09 178.352 366.095 178.352C366.101 178.352 366.106 178.352 366.111 178.352C366.116 178.352 366.121 178.352 366.126 178.352C366.131 178.352 366.136 178.352 366.141 178.352C366.146 178.352 366.151 178.352 366.156 178.352C366.161 178.352 366.166 178.352 366.171 178.352C366.176 178.352 366.181 178.352 366.186 178.352C366.191 178.352 366.196 178.352 366.201 178.352C366.206 178.352 366.211 178.352 366.216 178.352C366.221 178.352 366.227 178.352 366.232 178.352C366.237 178.352 366.242 178.352 366.247 178.352C366.252 178.352 366.257 178.352 366.262 178.352C366.267 178.352 366.272 178.352 366.277 178.352C366.282 178.352 366.287 178.352 366.292 178.352C366.297 178.352 366.302 178.352 366.307 178.352C366.312 178.352 366.317 178.352 366.323 178.352C366.328 178.352 366.333 178.352 366.338 178.352C366.343 178.352 366.348 178.352 366.353 178.352C366.358 178.352 366.363 178.352 366.368 178.352C366.373 178.352 366.378 178.352 366.383 178.352C366.388 178.352 366.393 178.352 366.398 178.352C366.404 178.352 366.409 178.352 366.414 178.352C366.419 178.352 366.424 178.352 366.429 178.352C366.434 178.352 366.439 178.352 366.444 178.352C366.449 178.352 366.454 178.352 366.459 178.352C366.464 178.352 366.469 178.352 366.474 178.352C366.48 178.352 366.485 178.352 366.49 178.352C366.495 178.352 366.5 178.352 366.505 178.352C366.51 178.352 366.515 178.352 366.52 178.352C366.525 178.352 366.53 178.352 366.535 178.352C366.54 178.352 366.546 178.352 366.551 178.352C366.556 178.352 366.561 178.352 366.566 178.352C366.571 178.352 366.576 178.352 366.581 178.352C366.586 178.352 366.591 178.352 366.596 178.352C366.601 178.352 366.607 178.352 366.612 178.352C366.617 178.352 366.622 178.352 366.627 178.352C366.632 178.352 366.637 178.352 366.642 178.352C366.647 178.352 366.652 178.352 366.657 178.352C366.663 178.352 366.668 178.352 366.673 178.352C366.678 178.352 366.683 178.352 366.688 178.352C366.693 178.352 366.698 178.352 366.703 178.352C366.708 178.352 366.714 178.352 366.719 178.352C366.724 178.352 366.729 178.352 366.734 178.352C366.739 178.352 366.744 178.352 366.749 178.352C366.754 178.352 366.759 178.352 366.765 178.352C366.77 178.352 366.775 178.352 366.78 178.352C366.785 178.352 366.79 178.352 366.795 178.352C366.8 178.352 366.805 178.352 366.811 178.352C366.816 178.352 366.821 178.352 366.826 178.352C366.831 178.352 366.836 178.352 366.841 178.352C366.846 178.352 366.851 178.352 366.857 178.352C366.862 178.352 366.867 178.352 366.872 178.352C366.877 178.352 366.882 178.352 366.887 178.352C366.892 178.352 366.897 178.352 366.903 178.352C366.908 178.352 366.913 178.352 366.918 178.352C366.923 178.352 366.928 178.352 366.933 178.352C366.938 178.352 366.944 178.352 366.949 178.352C366.954 178.352 366.959 178.352 366.964 178.352C366.969 178.352 366.974 178.352 366.979 178.352C366.985 178.352 366.99 178.352 366.995 178.352C367 178.352 367.005 178.352 367.01 178.352C367.015 178.352 367.021 178.352 367.026 178.352C367.031 178.352 367.036 178.352 367.041 178.352C367.046 178.352 367.051 178.352 367.056 178.352C367.062 178.352 367.067 178.352 367.072 178.352C367.077 178.352 367.082 178.352 367.087 178.352C367.092 178.352 367.098 178.352 367.103 178.352C367.108 178.352 367.113 178.352 367.118 178.352C367.123 178.352 367.128 178.352 367.134 178.352C367.139 178.352 367.144 178.352 367.149 178.352C367.154 178.352 367.159 178.352 367.165 178.352C367.17 178.352 367.175 178.352 367.18 178.352C367.185 178.352 367.19 178.352 367.195 178.352C367.201 178.352 367.206 178.352 367.211 178.352C367.216 178.352 367.221 178.352 367.226 178.352C367.232 178.352 367.237 178.352 367.242 178.352C367.247 178.352 367.252 178.352 367.257 178.352C367.262 178.352 367.268 178.352 367.273 178.352C367.278 178.352 367.283 178.352 367.288 178.352C367.293 178.352 367.299 178.352 367.304 178.352V180.352C367.299 180.352 367.293 180.352 367.288 180.352C367.283 180.352 367.278 180.352 367.273 180.352C367.268 180.352 367.262 180.352 367.257 180.352C367.252 180.352 367.247 180.352 367.242 180.352C367.237 180.352 367.232 180.352 367.226 180.352C367.221 180.352 367.216 180.352 367.211 180.352C367.206 180.352 367.201 180.352 367.195 180.352C367.19 180.352 367.185 180.352 367.18 180.352C367.175 180.352 367.17 180.352 367.165 180.352C367.159 180.352 367.154 180.352 367.149 180.352C367.144 180.352 367.139 180.352 367.134 180.352C367.128 180.352 367.123 180.352 367.118 180.352C367.113 180.352 367.108 180.352 367.103 180.352C367.098 180.352 367.092 180.352 367.087 180.352C367.082 180.352 367.077 180.352 367.072 180.352C367.067 180.352 367.062 180.352 367.056 180.352C367.051 180.352 367.046 180.352 367.041 180.352C367.036 180.352 367.031 180.352 367.026 180.352C367.021 180.352 367.015 180.352 367.01 180.352C367.005 180.352 367 180.352 366.995 180.352C366.99 180.352 366.985 180.352 366.979 180.352C366.974 180.352 366.969 180.352 366.964 180.352C366.959 180.352 366.954 180.352 366.949 180.352C366.944 180.352 366.938 180.352 366.933 180.352C366.928 180.352 366.923 180.352 366.918 180.352C366.913 180.352 366.908 180.352 366.903 180.352C366.897 180.352 366.892 180.352 366.887 180.352C366.882 180.352 366.877 180.352 366.872 180.352C366.867 180.352 366.862 180.352 366.857 180.352C366.851 180.352 366.846 180.352 366.841 180.352C366.836 180.352 366.831 180.352 366.826 180.352C366.821 180.352 366.816 180.352 366.811 180.352C366.805 180.352 366.8 180.352 366.795 180.352C366.79 180.352 366.785 180.352 366.78 180.352C366.775 180.352 366.77 180.352 366.765 180.352C366.759 180.352 366.754 180.352 366.749 180.352C366.744 180.352 366.739 180.352 366.734 180.352C366.729 180.352 366.724 180.352 366.719 180.352C366.714 180.352 366.708 180.352 366.703 180.352C366.698 180.352 366.693 180.352 366.688 180.352C366.683 180.352 366.678 180.352 366.673 180.352C366.668 180.352 366.663 180.352 366.657 180.352C366.652 180.352 366.647 180.352 366.642 180.352C366.637 180.352 366.632 180.352 366.627 180.352C366.622 180.352 366.617 180.352 366.612 180.352C366.607 180.352 366.601 180.352 366.596 180.352C366.591 180.352 366.586 180.352 366.581 180.352C366.576 180.352 366.571 180.352 366.566 180.352C366.561 180.352 366.556 180.352 366.551 180.352C366.546 180.352 366.54 180.352 366.535 180.352C366.53 180.352 366.525 180.352 366.52 180.352C366.515 180.352 366.51 180.352 366.505 180.352C366.5 180.352 366.495 180.352 366.49 180.352C366.485 180.352 366.48 180.352 366.474 180.352C366.469 180.352 366.464 180.352 366.459 180.352C366.454 180.352 366.449 180.352 366.444 180.352C366.439 180.352 366.434 180.352 366.429 180.352C366.424 180.352 366.419 180.352 366.414 180.352C366.409 180.352 366.404 180.352 366.398 180.352C366.393 180.352 366.388 180.352 366.383 180.352C366.378 180.352 366.373 180.352 366.368 180.352C366.363 180.352 366.358 180.352 366.353 180.352C366.348 180.352 366.343 180.352 366.338 180.352C366.333 180.352 366.328 180.352 366.323 180.352C366.317 180.352 366.312 180.352 366.307 180.352C366.302 180.352 366.297 180.352 366.292 180.352C366.287 180.352 366.282 180.352 366.277 180.352C366.272 180.352 366.267 180.352 366.262 180.352C366.257 180.352 366.252 180.352 366.247 180.352C366.242 180.352 366.237 180.352 366.232 180.352C366.227 180.352 366.221 180.352 366.216 180.352C366.211 180.352 366.206 180.352 366.201 180.352C366.196 180.352 366.191 180.352 366.186 180.352C366.181 180.352 366.176 180.352 366.171 180.352C366.166 180.352 366.161 180.352 366.156 180.352C366.151 180.352 366.146 180.352 366.141 180.352C366.136 180.352 366.131 180.352 366.126 180.352C366.121 180.352 366.116 180.352 366.111 180.352C366.106 180.352 366.101 180.352 366.095 180.352C366.09 180.352 366.085 180.352 366.08 180.352C366.075 180.352 366.07 180.352 366.065 180.352C366.06 180.352 366.055 180.352 366.05 180.352C366.045 180.352 366.04 180.352 366.035 180.352C366.03 180.352 366.025 180.352 366.02 180.352C366.015 180.352 366.01 180.352 366.005 180.352C366 180.352 365.995 180.352 365.99 180.352C365.985 180.352 365.98 180.352 365.975 180.352C365.97 180.352 365.965 180.352 365.96 180.352C365.955 180.352 365.95 180.352 365.945 180.352C365.94 180.352 365.935 180.352 365.93 180.352C365.925 180.352 365.92 180.352 365.915 180.352C365.91 180.352 365.905 180.352 365.9 180.352C365.895 180.352 365.89 180.352 365.885 180.352C365.88 180.352 365.875 180.352 365.87 180.352C365.865 180.352 365.859 180.352 365.854 180.352C365.849 180.352 365.844 180.352 365.839 180.352C365.834 180.352 365.829 180.352 365.824 180.352C365.819 180.352 365.814 180.352 365.809 180.352C365.804 180.352 365.799 180.352 365.794 180.352C365.789 180.352 365.784 180.352 365.779 180.352C365.774 180.352 365.769 180.352 365.764 180.352C365.759 180.352 365.754 180.352 365.749 180.352C365.744 180.352 365.739 180.352 365.734 180.352C365.729 180.352 365.724 180.352 365.719 180.352C365.714 180.352 365.709 180.352 365.704 180.352C365.699 180.352 365.694 180.352 365.689 180.352C365.684 180.352 365.679 180.352 365.674 180.352C365.669 180.352 365.664 180.352 365.66 180.352C365.655 180.352 365.65 180.352 365.645 180.352C365.64 180.352 365.635 180.352 365.63 180.352C365.625 180.352 365.62 180.352 365.615 180.352C365.61 180.352 365.605 180.352 365.6 180.352C365.595 180.352 365.59 180.352 365.585 180.352C365.58 180.352 365.575 180.352 365.57 180.352C365.565 180.352 365.56 180.352 365.555 180.352C365.55 180.352 365.545 180.352 365.54 180.352C365.535 180.352 365.53 180.352 365.525 180.352C365.52 180.352 365.515 180.352 365.51 180.352C365.505 180.352 365.5 180.352 365.495 180.352C365.49 180.352 365.485 180.352 365.48 180.352C365.475 180.352 365.47 180.352 365.465 180.352C365.46 180.352 365.455 180.352 365.45 180.352C365.445 180.352 365.44 180.352 365.435 180.352C365.43 180.352 365.426 180.352 365.421 180.352C365.416 180.352 365.411 180.352 365.406 180.352C365.401 180.352 365.396 180.352 365.391 180.352C365.386 180.352 365.381 180.352 365.376 180.352C365.371 180.352 365.366 180.352 365.361 180.352C365.356 180.352 365.351 180.352 365.346 180.352C365.341 180.352 365.336 180.352 365.331 180.352C365.326 180.352 365.321 180.352 365.316 180.352C365.311 180.352 365.306 180.352 365.301 180.352C365.297 180.352 365.292 180.352 365.287 180.352C365.282 180.352 365.277 180.352 365.272 180.352C365.267 180.352 365.262 180.352 365.257 180.352C365.252 180.352 365.247 180.352 365.242 180.352C365.237 180.352 365.232 180.352 365.227 180.352C365.222 180.352 365.217 180.352 365.212 180.352C365.207 180.352 365.202 180.352 365.197 180.352C365.193 180.352 365.188 180.352 365.183 180.352C365.178 180.352 365.173 180.352 365.168 180.352C365.163 180.352 365.158 180.352 365.153 180.352C365.148 180.352 365.143 180.352 365.138 180.352C365.133 180.352 365.128 180.352 365.123 180.352C365.118 180.352 365.113 180.352 365.109 180.352C365.104 180.352 365.099 180.352 365.094 180.352C365.089 180.352 365.084 180.352 365.079 180.352C365.074 180.352 365.069 180.352 365.064 180.352C365.059 180.352 365.054 180.352 365.049 180.352C365.044 180.352 365.039 180.352 365.034 180.352C365.03 180.352 365.025 180.352 365.02 180.352C365.015 180.352 365.01 180.352 365.005 180.352C365 180.352 364.995 180.352 364.99 180.352C364.985 180.352 364.98 180.352 364.975 180.352C364.97 180.352 364.965 180.352 364.961 180.352C364.956 180.352 364.951 180.352 364.946 180.352C364.941 180.352 364.936 180.352 364.931 180.352C364.926 180.352 364.921 180.352 364.916 180.352C364.911 180.352 364.906 180.352 364.901 180.352C364.897 180.352 364.892 180.352 364.887 180.352C364.882 180.352 364.877 180.352 364.872 180.352C364.867 180.352 364.862 180.352 364.857 180.352C364.852 180.352 364.847 180.352 364.842 180.352C364.838 180.352 364.833 180.352 364.828 180.352C364.823 180.352 364.818 180.352 364.813 180.352C364.808 180.352 364.803 180.352 364.798 180.352C364.793 180.352 364.788 180.352 364.784 180.352C364.779 180.352 364.774 180.352 364.769 180.352C364.764 180.352 364.759 180.352 364.754 180.352C364.749 180.352 364.744 180.352 364.739 180.352C364.734 180.352 364.729 180.352 364.725 180.352C364.72 180.352 364.715 180.352 364.71 180.352C364.705 180.352 364.7 180.352 364.695 180.352C364.69 180.352 364.685 180.352 364.68 180.352C364.676 180.352 364.671 180.352 364.666 180.352C364.661 180.352 364.656 180.352 364.651 180.352C364.646 180.352 364.641 180.352 364.636 180.352C364.631 180.352 364.627 180.352 364.622 180.352C364.617 180.352 364.612 180.352 364.607 180.352C364.602 180.352 364.597 180.352 364.592 180.352C364.587 180.352 364.582 180.352 364.578 180.352C364.573 180.352 364.568 180.352 364.563 180.352C364.558 180.352 364.553 180.352 364.548 180.352C364.543 180.352 364.538 180.352 364.534 180.352C364.529 180.352 364.524 180.352 364.519 180.352C364.514 180.352 364.509 180.352 364.504 180.352C364.499 180.352 364.494 180.352 364.49 180.352C364.485 180.352 364.48 180.352 364.475 180.352C364.47 180.352 364.465 180.352 364.46 180.352C364.455 180.352 364.451 180.352 364.446 180.352C364.441 180.352 364.436 180.352 364.431 180.352C364.426 180.352 364.421 180.352 364.416 180.352C364.411 180.352 364.407 180.352 364.402 180.352C364.397 180.352 364.392 180.352 364.387 180.352C364.382 180.352 364.377 180.352 364.372 180.352C364.368 180.352 364.363 180.352 364.358 180.352C364.353 180.352 364.348 180.352 364.343 180.352C364.338 180.352 364.333 180.352 364.329 180.352C364.324 180.352 364.319 180.352 364.314 180.352C364.309 180.352 364.304 180.352 364.299 180.352C364.294 180.352 364.29 180.352 364.285 180.352C364.28 180.352 364.275 180.352 364.27 180.352C364.265 180.352 364.26 180.352 364.255 180.352C364.251 180.352 364.246 180.352 364.241 180.352C364.236 180.352 364.231 180.352 364.226 180.352C364.221 180.352 364.217 180.352 364.212 180.352C364.207 180.352 364.202 180.352 364.197 180.352C364.192 180.352 364.187 180.352 364.182 180.352C364.178 180.352 364.173 180.352 364.168 180.352C364.163 180.352 364.158 180.352 364.153 180.352C364.148 180.352 364.144 180.352 364.139 180.352C364.134 180.352 364.129 180.352 364.124 180.352C364.119 180.352 364.114 180.352 364.11 180.352C364.105 180.352 364.1 180.352 364.095 180.352C364.09 180.352 364.085 180.352 364.08 180.352C364.076 180.352 364.071 180.352 364.066 180.352C364.061 180.352 364.056 180.352 364.051 180.352C364.046 180.352 364.042 180.352 364.037 180.352C364.032 180.352 364.027 180.352 364.022 180.352C364.017 180.352 364.012 180.352 364.008 180.352C364.003 180.352 363.998 180.352 363.993 180.352C363.988 180.352 363.983 180.352 363.979 180.352C363.974 180.352 363.969 180.352 363.964 180.352C363.959 180.352 363.954 180.352 363.949 180.352C363.945 180.352 363.94 180.352 363.935 180.352C363.93 180.352 363.925 180.352 363.92 180.352C363.916 180.352 363.911 180.352 363.906 180.352C363.901 180.352 363.896 180.352 363.891 180.352C363.887 180.352 363.882 180.352 363.877 180.352C363.872 180.352 363.867 180.352 363.862 180.352C363.857 180.352 363.853 180.352 363.848 180.352C363.843 180.352 363.838 180.352 363.833 180.352C363.828 180.352 363.824 180.352 363.819 180.352C363.814 180.352 363.809 180.352 363.804 180.352C363.799 180.352 363.795 180.352 363.79 180.352C363.785 180.352 363.78 180.352 363.775 180.352C363.77 180.352 363.766 180.352 363.761 180.352C363.756 180.352 363.751 180.352 363.746 180.352C363.741 180.352 363.737 180.352 363.732 180.352C363.727 180.352 363.722 180.352 363.717 180.352C363.712 180.352 363.708 180.352 363.703 180.352C363.698 180.352 363.693 180.352 363.688 180.352C363.683 180.352 363.679 180.352 363.674 180.352C363.669 180.352 363.664 180.352 363.659 180.352C363.654 180.352 363.65 180.352 363.645 180.352C363.64 180.352 363.635 180.352 363.63 180.352C363.626 180.352 363.621 180.352 363.616 180.352C363.611 180.352 363.606 180.352 363.601 180.352C363.597 180.352 363.592 180.352 363.587 180.352C363.582 180.352 363.577 180.352 363.573 180.352C363.568 180.352 363.563 180.352 363.558 180.352C363.553 180.352 363.548 180.352 363.544 180.352C363.539 180.352 363.534 180.352 363.529 180.352C363.524 180.352 363.52 180.352 363.515 180.352C363.51 180.352 363.505 180.352 363.5 180.352C363.495 180.352 363.491 180.352 363.486 180.352C363.481 180.352 363.476 180.352 363.471 180.352C363.467 180.352 363.462 180.352 363.457 180.352C363.452 180.352 363.447 180.352 363.442 180.352C363.438 180.352 363.433 180.352 363.428 180.352C363.423 180.352 363.418 180.352 363.414 180.352C363.409 180.352 363.404 180.352 363.399 180.352C363.394 180.352 363.39 180.352 363.385 180.352C363.38 180.352 363.375 180.352 363.37 180.352C363.366 180.352 363.361 180.352 363.356 180.352C363.351 180.352 363.346 180.352 363.341 180.352C363.337 180.352 363.332 180.352 363.327 180.352C363.322 180.352 363.317 180.352 363.313 180.352C363.308 180.352 363.303 180.352 363.298 180.352C363.293 180.352 363.289 180.352 363.284 180.352C363.279 180.352 363.274 180.352 363.269 180.352C363.265 180.352 363.26 180.352 363.255 180.352C363.25 180.352 363.245 180.352 363.241 180.352C363.236 180.352 363.231 180.352 363.226 180.352C363.221 180.352 363.217 180.352 363.212 180.352C363.207 180.352 363.202 180.352 363.197 180.352C363.193 180.352 363.188 180.352 363.183 180.352C363.178 180.352 363.173 180.352 363.169 180.352C363.164 180.352 363.159 180.352 363.154 180.352C363.149 180.352 363.145 180.352 363.14 180.352C363.135 180.352 363.13 180.352 363.125 180.352C363.121 180.352 363.116 180.352 363.111 180.352C363.106 180.352 363.102 180.352 363.097 180.352C363.092 180.352 363.087 180.352 363.082 180.352C363.078 180.352 363.073 180.352 363.068 180.352C363.063 180.352 363.058 180.352 363.054 180.352C363.049 180.352 363.044 180.352 363.039 180.352C363.034 180.352 363.03 180.352 363.025 180.352C363.02 180.352 363.015 180.352 363.011 180.352C363.006 180.352 363.001 180.352 362.996 180.352C362.991 180.352 362.987 180.352 362.982 180.352C362.977 180.352 362.972 180.352 362.967 180.352C362.963 180.352 362.958 180.352 362.953 180.352C362.948 180.352 362.944 180.352 362.939 180.352C362.934 180.352 362.929 180.352 362.924 180.352C362.92 180.352 362.915 180.352 362.91 180.352C362.905 180.352 362.901 180.352 362.896 180.352C362.891 180.352 362.886 180.352 362.881 180.352C362.877 180.352 362.872 180.352 362.867 180.352C362.862 180.352 362.858 180.352 362.853 180.352C362.848 180.352 362.843 180.352 362.838 180.352C362.834 180.352 362.829 180.352 362.824 180.352C362.819 180.352 362.815 180.352 362.81 180.352C362.805 180.352 362.8 180.352 362.795 180.352C362.791 180.352 362.786 180.352 362.781 180.352C362.776 180.352 362.772 180.352 362.767 180.352C362.762 180.352 362.757 180.352 362.752 180.352C362.748 180.352 362.743 180.352 362.738 180.352C362.733 180.352 362.729 180.352 362.724 180.352C362.719 180.352 362.714 180.352 362.71 180.352C362.705 180.352 362.7 180.352 362.695 180.352C362.69 180.352 362.686 180.352 362.681 180.352C362.676 180.352 362.671 180.352 362.667 180.352C362.662 180.352 362.657 180.352 362.652 180.352C362.648 180.352 362.643 180.352 362.638 180.352C362.633 180.352 362.628 180.352 362.624 180.352C362.619 180.352 362.614 180.352 362.609 180.352C362.605 180.352 362.6 180.352 362.595 180.352C362.59 180.352 362.586 180.352 362.581 180.352C362.576 180.352 362.571 180.352 362.566 180.352C362.562 180.352 362.557 180.352 362.552 180.352C362.547 180.352 362.543 180.352 362.538 180.352C362.533 180.352 362.528 180.352 362.524 180.352C362.519 180.352 362.514 180.352 362.509 180.352C362.505 180.352 362.5 180.352 362.495 180.352C362.49 180.352 362.486 180.352 362.481 180.352C362.476 180.352 362.471 180.352 362.467 180.352C362.462 180.352 362.457 180.352 362.452 180.352C362.447 180.352 362.443 180.352 362.438 180.352C362.433 180.352 362.428 180.352 362.424 180.352C362.419 180.352 362.414 180.352 362.409 180.352C362.405 180.352 362.4 180.352 362.395 180.352C362.39 180.352 362.386 180.352 362.381 180.352C362.376 180.352 362.371 180.352 362.367 180.352C362.362 180.352 362.357 180.352 362.352 180.352C362.348 180.352 362.343 180.352 362.338 180.352C362.333 180.352 362.329 180.352 362.324 180.352C362.319 180.352 362.314 180.352 362.31 180.352C362.305 180.352 362.3 180.352 362.295 180.352C362.291 180.352 362.286 180.352 362.281 180.352C362.276 180.352 362.272 180.352 362.267 180.352C362.262 180.352 362.257 180.352 362.253 180.352C362.248 180.352 362.243 180.352 362.238 180.352C362.234 180.352 362.229 180.352 362.224 180.352C362.219 180.352 362.215 180.352 362.21 180.352C362.205 180.352 362.2 180.352 362.196 180.352C362.191 180.352 362.186 180.352 362.181 180.352C362.177 180.352 362.172 180.352 362.167 180.352C362.162 180.352 362.158 180.352 362.153 180.352C362.148 180.352 362.143 180.352 362.139 180.352C362.134 180.352 362.129 180.352 362.124 180.352C362.12 180.352 362.115 180.352 362.11 180.352C362.105 180.352 362.101 180.352 362.096 180.352C362.091 180.352 362.086 180.352 362.082 180.352C362.077 180.352 362.072 180.352 362.068 180.352C362.063 180.352 362.058 180.352 362.053 180.352C362.049 180.352 362.044 180.352 362.039 180.352C362.034 180.352 362.03 180.352 362.025 180.352C362.02 180.352 362.015 180.352 362.011 180.352C362.006 180.352 362.001 180.352 361.996 180.352C361.992 180.352 361.987 180.352 361.982 180.352C361.977 180.352 361.973 180.352 361.968 180.352C361.963 180.352 361.959 180.352 361.954 180.352C361.949 180.352 361.944 180.352 361.94 180.352C361.935 180.352 361.93 180.352 361.925 180.352C361.921 180.352 361.916 180.352 361.911 180.352C361.906 180.352 361.902 180.352 361.897 180.352C361.892 180.352 361.887 180.352 361.883 180.352C361.878 180.352 361.873 180.352 361.869 180.352C361.864 180.352 361.859 180.352 361.854 180.352C361.85 180.352 361.845 180.352 361.84 180.352C361.835 180.352 361.831 180.352 361.826 180.352C361.821 180.352 361.816 180.352 361.812 180.352C361.807 180.352 361.802 180.352 361.798 180.352C361.793 180.352 361.788 180.352 361.783 180.352C361.779 180.352 361.774 180.352 361.769 180.352C361.764 180.352 361.76 180.352 361.755 180.352C361.75 180.352 361.746 180.352 361.741 180.352C361.736 180.352 361.731 180.352 361.727 180.352C361.722 180.352 361.717 180.352 361.712 180.352C361.708 180.352 361.703 180.352 361.698 180.352C361.694 180.352 361.689 180.352 361.684 180.352C361.679 180.352 361.675 180.352 361.67 180.352C361.665 180.352 361.66 180.352 361.656 180.352C361.651 180.352 361.646 180.352 361.642 180.352C361.637 180.352 361.632 180.352 361.627 180.352C361.623 180.352 361.618 180.352 361.613 180.352C361.608 180.352 361.604 180.352 361.599 180.352C361.594 180.352 361.59 180.352 361.585 180.352C361.58 180.352 361.575 180.352 361.571 180.352C361.566 180.352 361.561 180.352 361.556 180.352C361.552 180.352 361.547 180.352 361.542 180.352C361.538 180.352 361.533 180.352 361.528 180.352C361.523 180.352 361.519 180.352 361.514 180.352C361.509 180.352 361.505 180.352 361.5 180.352C361.495 180.352 361.49 180.352 361.486 180.352C361.481 180.352 361.476 180.352 361.471 180.352C361.467 180.352 361.462 180.352 361.457 180.352C361.453 180.352 361.448 180.352 361.443 180.352C361.438 180.352 361.434 180.352 361.429 180.352C361.424 180.352 361.42 180.352 361.415 180.352C361.41 180.352 361.405 180.352 361.401 180.352C361.396 180.352 361.391 180.352 361.387 180.352C361.382 180.352 361.377 180.352 361.372 180.352C361.368 180.352 361.363 180.352 361.358 180.352C361.353 180.352 361.349 180.352 361.344 180.352C361.339 180.352 361.335 180.352 361.33 180.352C361.325 180.352 361.32 180.352 361.316 180.352C361.311 180.352 361.306 180.352 361.302 180.352C361.297 180.352 361.292 180.352 361.287 180.352C361.283 180.352 361.278 180.352 361.273 180.352C361.269 180.352 361.264 180.352 361.259 180.352C361.254 180.352 361.25 180.352 361.245 180.352C361.24 180.352 361.236 180.352 361.231 180.352C361.226 180.352 361.221 180.352 361.217 180.352C361.212 180.352 361.207 180.352 361.203 180.352C361.198 180.352 361.193 180.352 361.188 180.352C361.184 180.352 361.179 180.352 361.174 180.352C361.17 180.352 361.165 180.352 361.16 180.352C361.155 180.352 361.151 180.352 361.146 180.352C361.141 180.352 361.137 180.352 361.132 180.352C361.127 180.352 361.122 180.352 361.118 180.352C361.113 180.352 361.108 180.352 361.104 180.352C361.099 180.352 361.094 180.352 361.089 180.352C361.085 180.352 361.08 180.352 361.075 180.352C361.071 180.352 361.066 180.352 361.061 180.352C361.056 180.352 361.052 180.352 361.047 180.352C361.042 180.352 361.038 180.352 361.033 180.352C361.028 180.352 361.024 180.352 361.019 180.352C361.014 180.352 361.009 180.352 361.005 180.352C361 180.352 360.995 180.352 360.991 180.352C360.986 180.352 360.981 180.352 360.976 180.352C360.972 180.352 360.967 180.352 360.962 180.352C360.958 180.352 360.953 180.352 360.948 180.352C360.943 180.352 360.939 180.352 360.934 180.352C360.929 180.352 360.925 180.352 360.92 180.352C360.915 180.352 360.91 180.352 360.906 180.352C360.901 180.352 360.896 180.352 360.892 180.352C360.887 180.352 360.882 180.352 360.878 180.352C360.873 180.352 360.868 180.352 360.863 180.352C360.859 180.352 360.854 180.352 360.849 180.352C360.845 180.352 360.84 180.352 360.835 180.352C360.831 180.352 360.826 180.352 360.821 180.352C360.816 180.352 360.812 180.352 360.807 180.352C360.802 180.352 360.798 180.352 360.793 180.352C360.788 180.352 360.783 180.352 360.779 180.352C360.774 180.352 360.769 180.352 360.765 180.352C360.76 180.352 360.755 180.352 360.75 180.352C360.746 180.352 360.741 180.352 360.736 180.352C360.732 180.352 360.727 180.352 360.722 180.352C360.718 180.352 360.713 180.352 360.708 180.352C360.703 180.352 360.699 180.352 360.694 180.352C360.689 180.352 360.685 180.352 360.68 180.352C360.675 180.352 360.671 180.352 360.666 180.352C360.661 180.352 360.656 180.352 360.652 180.352C360.647 180.352 360.642 180.352 360.638 180.352C360.633 180.352 360.628 180.352 360.624 180.352C360.619 180.352 360.614 180.352 360.609 180.352C360.605 180.352 360.6 180.352 360.595 180.352C360.591 180.352 360.586 180.352 360.581 180.352C360.576 180.352 360.572 180.352 360.567 180.352C360.562 180.352 360.558 180.352 360.553 180.352C360.548 180.352 360.544 180.352 360.539 180.352C360.534 180.352 360.529 180.352 360.525 180.352C360.52 180.352 360.515 180.352 360.511 180.352C360.506 180.352 360.501 180.352 360.497 180.352C360.492 180.352 360.487 180.352 360.482 180.352C360.478 180.352 360.473 180.352 360.468 180.352C360.464 180.352 360.459 180.352 360.454 180.352C360.45 180.352 360.445 180.352 360.44 180.352C360.435 180.352 360.431 180.352 360.426 180.352C360.421 180.352 360.417 180.352 360.412 180.352C360.407 180.352 360.403 180.352 360.398 180.352C360.393 180.352 360.388 180.352 360.384 180.352C360.379 180.352 360.374 180.352 360.37 180.352C360.365 180.352 360.36 180.352 360.356 180.352C360.351 180.352 360.346 180.352 360.341 180.352C360.337 180.352 360.332 180.352 360.327 180.352C360.323 180.352 360.318 180.352 360.313 180.352C360.309 180.352 360.304 180.352 360.299 180.352C360.294 180.352 360.29 180.352 360.285 180.352C360.28 180.352 360.276 180.352 360.271 180.352C360.266 180.352 360.262 180.352 360.257 180.352C360.252 180.352 360.247 180.352 360.243 180.352C360.238 180.352 360.233 180.352 360.229 180.352C360.224 180.352 360.219 180.352 360.215 180.352C360.21 180.352 360.205 180.352 360.2 180.352C360.196 180.352 360.191 180.352 360.186 180.352C360.182 180.352 360.177 180.352 360.172 180.352C360.168 180.352 360.163 180.352 360.158 180.352C360.153 180.352 360.149 180.352 360.144 180.352C360.139 180.352 360.135 180.352 360.13 180.352C360.125 180.352 360.121 180.352 360.116 180.352C360.111 180.352 360.107 180.352 360.102 180.352C360.097 180.352 360.092 180.352 360.088 180.352C360.083 180.352 360.078 180.352 360.074 180.352C360.069 180.352 360.064 180.352 360.06 180.352C360.055 180.352 360.05 180.352 360.045 180.352C360.041 180.352 360.036 180.352 360.031 180.352C360.027 180.352 360.022 180.352 360.017 180.352C360.013 180.352 360.008 180.352 360.003 180.352C359.998 180.352 359.994 180.352 359.989 180.352C359.984 180.352 359.98 180.352 359.975 180.352C359.97 180.352 359.966 180.352 359.961 180.352C359.956 180.352 359.951 180.352 359.947 180.352C359.942 180.352 359.937 180.352 359.933 180.352C359.928 180.352 359.923 180.352 359.919 180.352C359.914 180.352 359.909 180.352 359.905 180.352C359.9 180.352 359.895 180.352 359.89 180.352C359.886 180.352 359.881 180.352 359.876 180.352C359.872 180.352 359.867 180.352 359.862 180.352C359.858 180.352 359.853 180.352 359.848 180.352V178.352ZM367.33 178.353C401.201 179.247 429.872 167.002 457.276 148.476C484.723 129.92 510.761 105.169 539.495 81.061C596.908 32.8909 664.648 -12.2946 773.89 2.06981L773.629 4.05273C665.213 -10.2031 598.029 34.5608 540.78 82.5932C512.183 106.587 485.957 131.5 458.396 150.133C430.791 168.795 401.711 181.261 367.277 180.352L367.33 178.353Z" fill="white" mask="url(#path-1-inside-1_97_6)"/>
  <path d="M-23.2803 48.4733C61.7564 102.026 170.815 45.1112 350.977 30.7025C358.424 29.9821 366.111 29.742 373.798 29.9821C508.56 34.3047 628.908 136.126 773.519 108.029" stroke="#E4E4E6" stroke-miterlimit="10"/>
  <path d="M-422 40.3071C-254.089 25.8984 -211.57 70.3252 -139.745 101.784C-87.3781 124.838 -28.7652 127.72 26.0042 111.39C150.196 74.1676 220.82 7.88756 374.799 72.2464" stroke="#FDFEFF" stroke-miterlimit="10"/>
  <path d="M-422 40.3071C-254.089 25.8984 -211.57 70.3252 -139.745 101.784C-87.3781 124.838 -28.7652 127.72 26.0042 111.39C150.196 74.1676 220.82 7.88756 374.799 72.2464" stroke="#FDFEFF" stroke-miterlimit="10"/>
  <defs>
    <linearGradient id="paint0_linear_97_6" x1="374.812" y1="137.912" x2="374.812" y2="179.464" gradientUnits="userSpaceOnUse">
      <stop stop-color="#ECECEE"/>
      <stop offset="1" stop-color="#E3E3E3"/>
    </linearGradient>
  </defs>
</svg>
