<?xml version="1.0" encoding="UTF-8"?>
<!DOCTYPE svg PUBLIC "-//W3C//DTD SVG 1.1//EN" "http://www.w3.org/Graphics/SVG/1.1/DTD/svg11.dtd">
<!-- Creator: CorelDRAW X6 -->
<svg xmlns="http://www.w3.org/2000/svg" xml:space="preserve" width="210mm" height="297mm" version="1.1" style="shape-rendering:geometricPrecision; text-rendering:geometricPrecision; image-rendering:optimizeQuality; fill-rule:evenodd; clip-rule:evenodd"
viewBox="0 0 21000 29700"
 xmlns:xlink="http://www.w3.org/1999/xlink">
 <defs>
  <style type="text/css">
   <![CDATA[
    .str2 {stroke:#ECECEE;stroke-width:20}
    .str1 {stroke:#FEFEFE;stroke-width:26.46}
    .str0 {stroke:#ECECEE;stroke-width:26.46}
    .fil0 {fill:none}
    .fil1 {fill:#ECECED}
   ]]>
  </style>
 </defs>
 <g id="Layer_x0020_1">
  <metadata id="CorelCorpID_0Corel-Layer"/>
  <g id="_493718280">
   <path class="fil0 str0" d="M18 14023c2220,1463 5136,17 9910,-266 197,-15 401,-17 604,-7 3562,188 6690,2947 10531,2283"/>
   <path class="fil0 str1" d="M-8 13282c4450,-290 5550,909 7433,1780 1373,638 2922,747 4379,345 3306,-917 5210,-2632 9248,-845"/>
   <path class="fil1 str2" d="M4252 13604c1301,374 2113,968 3173,1459 1373,638 2922,747 4379,345 1758,-488 3120,-1201 4618,-1493 -2363,1354 -3793,3372 -6174,3260l-197 -4c-2435,17 -3279,-2256 -5799,-3566z"/>
  </g>
 </g>
</svg>
